<?xml version="1.0" encoding="UTF-8"?>
<svg viewBox="0 0 1200 530" xmlns="http://www.w3.org/2000/svg" width="1200" height="530">
<rect width="1200" height="530" fill="#FFFFFF"/>
<text x="600" y="28" fill="#1A1A1A" font-size="16" font-weight="700" text-anchor="middle" font-family="Arial, sans-serif">Target OB vs Levi's posture across channels — current price ($)</text>

<g stroke="#E5E5E5" stroke-width="1" shape-rendering="crispEdges">
<line x1="300" y1="50" x2="300" y2="460"/>
<line x1="438" y1="50" x2="438" y2="460"/>
<line x1="577" y1="50" x2="577" y2="460"/>
<line x1="715" y1="50" x2="715" y2="460"/>
<line x1="853" y1="50" x2="853" y2="460"/>
<line x1="992" y1="50" x2="992" y2="460"/>
<line x1="1130" y1="50" x2="1130" y2="460"/>
</g>

<g fill="#666666" font-size="12" text-anchor="middle" font-family="Arial, sans-serif">
<text x="300" y="478">$0</text>
<text x="438" y="478">$20</text>
<text x="577" y="478">$40</text>
<text x="715" y="478">$60</text>
<text x="853" y="478">$80</text>
<text x="992" y="478">$100</text>
<text x="1130" y="478">$120</text>
</g>
<text x="715" y="500" fill="#666666" font-size="12" text-anchor="middle" font-family="Arial, sans-serif">Price ($)</text>

<g font-family="Arial, sans-serif">
<text x="280" y="76" fill="#1A1A1A" font-size="13" font-weight="700" text-anchor="end">Target Owned Brands</text>
<text x="280" y="92" fill="#666666" font-size="11" text-anchor="end">(n=95)</text>
<line x1="396.8" y1="80" x2="576.7" y2="80" stroke="#CC0000" stroke-width="2"/>
<line x1="396.8" y1="74" x2="396.8" y2="86" stroke="#CC0000" stroke-width="2"/>
<line x1="576.7" y1="74" x2="576.7" y2="86" stroke="#CC0000" stroke-width="2"/>
<rect x="493.7" y="68" width="48.4" height="24" fill="#FFFFFF" stroke="#CC0000" stroke-width="2.5" rx="6"/>
<line x1="507.5" y1="68" x2="507.5" y2="92" stroke="#CC0000" stroke-width="1.5"/>
<rect x="503.5" y="76" width="8" height="8" fill="#CC0000" transform="rotate(45 507.5 80)"/>
<text x="396.8" y="62" fill="#CC0000" font-size="11" font-weight="600" text-anchor="middle">$14</text>
<text x="576.7" y="62" fill="#CC0000" font-size="11" font-weight="600" text-anchor="middle">$40</text>
<text x="517.9" y="113" fill="#1A1A1A" font-size="11" text-anchor="middle">Med $30.00 · μ $30.04 · n=95</text>

<text x="280" y="156" fill="#1A1A1A" font-size="13" font-weight="700" text-anchor="end">Levi's at Target</text>
<text x="280" y="172" fill="#666666" font-size="11" text-anchor="end">(n=59 · Target NB)</text>
<line x1="576.6" y1="160" x2="818.7" y2="160" stroke="#FF4444" stroke-width="2"/>
<line x1="576.6" y1="154" x2="576.6" y2="166" stroke="#FF4444" stroke-width="2"/>
<line x1="818.7" y1="154" x2="818.7" y2="166" stroke="#FF4444" stroke-width="2"/>
<rect x="714.9" y="148" width="103.8" height="24" fill="#FFFFFF" stroke="#FF4444" stroke-width="2.5" rx="6"/>
<line x1="784.1" y1="148" x2="784.1" y2="172" stroke="#FF4444" stroke-width="1.5"/>
<rect x="780.1" y="156" width="8" height="8" fill="#FF4444" transform="rotate(45 784.1 160)"/>
<text x="576.6" y="142" fill="#FF4444" font-size="11" font-weight="600" text-anchor="middle">$40</text>
<text x="818.7" y="142" fill="#FF4444" font-size="11" font-weight="600" text-anchor="middle">$75</text>
<text x="766.8" y="193" fill="#1A1A1A" font-size="11" text-anchor="middle">Med $69.99 · μ $66.68 · n=59</text>

<text x="280" y="236" fill="#1A1A1A" font-size="13" font-weight="700" text-anchor="end">Levi's Direct (Levi.com)</text>
<text x="280" y="252" fill="#666666" font-size="11" text-anchor="end">(n=636)</text>
<line x1="472.8" y1="240" x2="1130" y2="240" stroke="#C41230" stroke-width="2"/>
<line x1="472.8" y1="234" x2="472.8" y2="246" stroke="#C41230" stroke-width="2"/>
<line x1="1130" y1="234" x2="1130" y2="246" stroke="#C41230" stroke-width="2"/>
<rect x="666.4" y="228" width="394.4" height="24" fill="#FFFFFF" stroke="#C41230" stroke-width="2.5" rx="6"/>
<line x1="818.4" y1="228" x2="818.4" y2="252" stroke="#C41230" stroke-width="1.5"/>
<rect x="814.4" y="236" width="8" height="8" fill="#C41230" transform="rotate(45 818.4 240)"/>
<text x="472.8" y="222" fill="#C41230" font-size="11" font-weight="600" text-anchor="middle">$25</text>
<text x="1110" y="222" fill="#C41230" font-size="11" font-weight="600" text-anchor="end">→ max $425</text>
<text x="863.6" y="273" fill="#1A1A1A" font-size="11" text-anchor="middle">Med $74.95 · μ $83.51 · n=636 · Q3 $110</text>

<text x="280" y="316" fill="#1A1A1A" font-size="13" font-weight="700" text-anchor="end">Levi's at Walmart</text>
<text x="280" y="332" fill="#666666" font-size="11" text-anchor="end">(n=161 · Walmart NB)</text>
<line x1="416.9" y1="320" x2="611.2" y2="320" stroke="#E5A800" stroke-width="2"/>
<line x1="416.9" y1="314" x2="416.9" y2="326" stroke="#E5A800" stroke-width="2"/>
<line x1="611.2" y1="314" x2="611.2" y2="326" stroke="#E5A800" stroke-width="2"/>
<rect x="521.3" y="308" width="75.9" height="24" fill="#FFFFFF" stroke="#E5A800" stroke-width="2.5" rx="6"/>
<line x1="576.5" y1="308" x2="576.5" y2="332" stroke="#E5A800" stroke-width="1.5"/>
<rect x="572.5" y="316" width="8" height="8" fill="#E5A800" transform="rotate(45 576.5 320)"/>
<text x="416.9" y="302" fill="#E5A800" font-size="11" font-weight="600" text-anchor="middle">$17</text>
<text x="611.2" y="302" fill="#E5A800" font-size="11" font-weight="600" text-anchor="middle">$45</text>
<text x="559.3" y="353" fill="#1A1A1A" font-size="11" text-anchor="middle">Med $39.97 · μ $36.67 · n=161</text>

<text x="280" y="396" fill="#1A1A1A" font-size="13" font-weight="700" text-anchor="end">Levi Strauss Signature</text>
<text x="280" y="412" fill="#666666" font-size="11" text-anchor="end">(n=177 · Walmart NB)</text>
<line x1="385.4" y1="400" x2="578.9" y2="400" stroke="#E5A800" stroke-width="2"/>
<line x1="385.4" y1="394" x2="385.4" y2="406" stroke="#E5A800" stroke-width="2"/>
<line x1="578.9" y1="394" x2="578.9" y2="406" stroke="#E5A800" stroke-width="2"/>
<rect x="472.8" y="388" width="20.8" height="24" fill="#FFFFFF" stroke="#E5A800" stroke-width="2.5" rx="6"/>
<line x1="486.6" y1="388" x2="486.6" y2="412" stroke="#E5A800" stroke-width="1.5"/>
<rect x="482.6" y="396" width="8" height="8" fill="#E5A800" transform="rotate(45 486.6 400)"/>
<text x="385.4" y="382" fill="#E5A800" font-size="11" font-weight="600" text-anchor="middle">$12</text>
<text x="578.9" y="382" fill="#E5A800" font-size="11" font-weight="600" text-anchor="middle">$40</text>
<text x="483.2" y="433" fill="#1A1A1A" font-size="11" text-anchor="middle">Med $26.98 · μ $26.89 · n=177</text>
</g>

<g font-family="Arial, sans-serif" font-size="10" fill="#666666">
<rect x="300" y="50" width="14" height="3" fill="#CC0000"/>
<text x="320" y="56">Target OB</text>
<rect x="395" y="50" width="14" height="3" fill="#FF4444"/>
<text x="415" y="56">Target NB</text>
<rect x="495" y="50" width="14" height="3" fill="#C41230"/>
<text x="515" y="56">Levi's Direct</text>
<rect x="605" y="50" width="14" height="3" fill="#E5A800"/>
<text x="625" y="56">Walmart NB</text>
</g>
</svg>
